PathFileType	4	(X/Y/Z)	C:/Users/opensim2020/Desktop/walking_exp_matlab/subject03_walking12_straight_03.trc																																																																																																																																														
DataRate	CameraRate	NumFrames	NumMarkers	Units	OrigDataRate	OrigDataStartFrame	OrigNumFrames																																																																																																																																										
100	100	7	48	mm	100	1751	185																																																																																																																																										
Frame#	Time	LFHD			RFHD			LBHD			RBHD			C7			T10			CLAV			STRN			RBAK			LSHO			LUPA			LELB			LFRM			LWRA			LWRB			LFIN			RSHO			RUPA			RELB			RFRM			RWRA			RWRB			RFIN			LASI			RASI			LPSI			RPSI			LTHI			LKNE			LTIB			LANK			LHEE			LTOE			RTHI			RKNE			RTIB			RANK			RHEE			RTOE			*39			*40			*41			*42			*43			*44			*45			*46			*47		
		X1	Y1	Z1	X2	Y2	Z2	X3	Y3	Z3	X4	Y4	Z4	X5	Y5	Z5	X6	Y6	Z6	X7	Y7	Z7	X8	Y8	Z8	X9	Y9	Z9	X10	Y10	Z10	X11	Y11	Z11	X12	Y12	Z12	X13	Y13	Z13	X14	Y14	Z14	X15	Y15	Z15	X16	Y16	Z16	X17	Y17	Z17	X18	Y18	Z18	X19	Y19	Z19	X20	Y20	Z20	X21	Y21	Z21	X22	Y22	Z22	X23	Y23	Z23	X24	Y24	Z24	X25	Y25	Z25	X26	Y26	Z26	X27	Y27	Z27	X28	Y28	Z28	X29	Y29	Z29	X30	Y30	Z30	X31	Y31	Z31	X32	Y32	Z32	X33	Y33	Z33	X34	Y34	Z34	X35	Y35	Z35	X36	Y36	Z36	X37	Y37	Z37	X38	Y38	Z38	X39	Y39	Z39	X40	Y40	Z40	X41	Y41	Z41	X42	Y42	Z42	X43	Y43	Z43	X44	Y44	Z44	X45	Y45	Z45	X46	Y46	Z46	X47	Y47	Z47	X48	Y48	Z48
																																																																																																																																																	
93	0.92	47.28786	1612.66357	-1060.93494	16.0603	1608.38013	-931.13953	-68.15299	1548.80249	-1088.48877	-94.30904	1544.13245	-960.30194	-90.43737	1391.56641	-1029.3584	-119.95789	1081.49207	-1009.0127	34.92328	1321.68066	-1016.95422	84.52049	1156.91772	-1013.95618	-140.25302	1219.48975	-924.6554	-5.84842	1352.06726	-1177.37097	-40.21738	1155.58972	-1247.9043	-58.72767	1034.11621	-1261.23669	-72.46692	904.11273	-1266.71619	-100.36977	784.88043	-1243.56506	-110.10169	799.35699	-1298.11731	-152.90163	719.46381	-1289.65247	-22.68086	1352.33325	-861.13354	-1.09759	1138.29993	-773.89111	33.21069	1033.26758	-754.01404	97.21463	913.35046	-750.51898	165.93544	842.54523	-783.06702	134.23488	819.81433	-746.41864	188.76732	771.09131	-751.79852	50.58587	926.77814	-1120.08936	40.7676	908.75903	-886.81769	-115.49408	945.42468	-1078.76172	-116.16078	945.27411	-928.01794	70.8325	638.14398	-1180.95715	136.92365	475.52234	-1140.00146	106.69499	275.25027	-1146.82861	95.16143	65.84362	-1107.32458	53.48652	31.11594	-1073.62085	245.56996	31.18076	-1077.96118	-51.826	614.24487	-847.68738	-70.64866	434.98709	-873.60229	-224.96063	311.90973	-872.6759	-387.35748	171.81731	-915.9137	-435.16968	185.66487	-970.5827	-341.0408	35.91036	-935.95032	NaN	NaN	NaN	NaN	NaN	NaN	NaN	NaN	NaN	NaN	NaN	NaN	NaN	NaN	NaN	NaN	NaN	NaN	NaN	NaN	NaN	NaN	NaN	NaN	NaN	NaN	NaN
94	0.93	61.33191	1612.52795	-1061.76892	29.73518	1608.57312	-932.07751	-54.51571	1549.4845	-1089.53906	-80.99079	1545.12573	-961.40631	-77.2075	1391.64685	-1030.57202	-106.15063	1081.69434	-1010.17175	48.30579	1322.09631	-1017.54535	98.49535	1157.55518	-1014.14764	-126.85138	1219.82275	-925.65454	8.57484	1352.4762	-1177.86035	-23.27716	1155.8783	-1248.89941	-40.42909	1034.12561	-1261.93774	-52.35974	903.93915	-1266.92542	-78.59643	784.59888	-1243.6438	-88.05579	798.56378	-1298.26355	-127.93958	717.41772	-1290.15845	-9.93578	1353.01404	-862.22791	10.74345	1138.61218	-775.49487	43.95403	1033.22192	-755.60834	106.09463	912.27759	-751.79736	173.70526	840.09265	-784.01007	141.55945	818.02612	-747.30127	194.94412	768.12024	-752.45911	64.69234	928.31415	-1121.18799	54.6717	909.44305	-887.82526	-101.55028	945.93793	-1078.96448	-102.28941	944.92725	-928.65356	82.63513	637.35144	-1181.52856	146.70479	473.47787	-1142.15588	112.37849	274.70694	-1147.61853	95.68876	65.93548	-1107.24255	53.55234	31.34934	-1073.58411	245.98956	30.80466	-1077.54675	-31.7686	612.03076	-848.50861	-45.88278	432.62061	-874.17151	-202.27158	313.48288	-873.5434	-369.57544	179.8521	-916.74774	-416.61746	196.7589	-971.50043	-329.88055	42.57631	-936.62128	-39.80191	1654.12793	-1032.27905	NaN	NaN	NaN	NaN	NaN	NaN	NaN	NaN	NaN	NaN	NaN	NaN	NaN	NaN	NaN	NaN	NaN	NaN	NaN	NaN	NaN	NaN	NaN	NaN
95	0.94	75.27471	1612.37976	-1062.53101	43.40574	1608.85742	-932.87384	-40.96369	1550.06079	-1090.43506	-67.72007	1546.14185	-962.34363	-64.32085	1391.51318	-1031.75732	-92.20041	1081.68372	-1011.49091	61.55812	1322.39111	-1017.94714	112.31804	1158.0708	-1014.18262	-113.8269	1220.10999	-926.72162	22.9935	1352.86938	-1178.27771	-6.38784	1156.19434	-1249.82861	-22.08687	1034.07788	-1262.73682	-32.15246	903.34503	-1267.06519	-56.11957	784.20905	-1243.68787	-65.36288	797.61078	-1298.21179	-101.80131	715.30206	-1290.4989	2.69333	1353.49805	-863.27386	22.26987	1138.82373	-776.92126	54.54147	1033.07654	-757.28296	114.52748	911.0365	-753.02307	180.9339	837.255	-785.2132	148.5298	816.18823	-748.17981	200.66304	764.88873	-753.34363	78.71733	929.61102	-1122.19727	68.01796	910.05908	-888.59967	-87.64941	946.21094	-1079.65857	-88.95454	944.45135	-929.55231	94.21022	636.44867	-1181.84058	156.03828	471.61664	-1143.09521	118.14967	274.08902	-1148.25537	96.37276	65.96838	-1107.01062	53.66037	31.64997	-1073.36792	246.51311	30.48795	-1077.39746	-11.97131	609.91626	-849.3905	-20.86379	430.36816	-875.09003	-178.73859	315.01492	-874.3551	-350.64017	188.5593	-918.66486	-397.36102	206.07648	-973.40594	-312.30389	50.64606	-934.59888	-26.19851	1658.20007	-1031.07886	NaN	NaN	NaN	NaN	NaN	NaN	NaN	NaN	NaN	NaN	NaN	NaN	NaN	NaN	NaN	NaN	NaN	NaN	NaN	NaN	NaN	NaN	NaN	NaN
96	0.95	89.22557	1612.26489	-1063.20679	56.984	1609.25159	-933.55139	-27.45871	1550.71301	-1091.18677	-54.49677	1547.22668	-963.18097	-51.6047	1391.34277	-1032.81384	-78.32928	1081.69128	-1012.92096	74.61316	1322.77502	-1018.13513	125.78456	1158.63062	-1014.02802	-100.9654	1220.31689	-927.78479	37.36315	1353.19958	-1178.69849	10.46981	1156.31311	-1250.59827	-3.50588	1034.01514	-1263.53479	-10.98378	903.39771	-1267.29114	-33.30627	783.60132	-1243.34265	-42.13119	796.50348	-1298.06067	-74.67474	713.11926	-1290.68115	14.81789	1353.89197	-864.02594	33.71249	1138.86536	-778.1922	65.01159	1032.70203	-758.86749	122.89783	909.63544	-754.33392	187.89038	834.33636	-786.53235	155.28175	814.16461	-749.03656	206.20041	761.42224	-754.50598	92.72558	930.53369	-1122.95203	80.76006	910.46399	-888.96002	-73.72147	946.42682	-1080.72522	-75.94157	943.83527	-930.7674	105.39336	635.57623	-1182.27258	165.23389	469.69052	-1143.49683	123.89749	273.44888	-1148.48169	97.2394	66.06364	-1106.73523	53.78135	32.15655	-1073.17249	246.91693	30.1494	-1077.08313	7.45816	608.24841	-850.25812	4.59886	428.49783	-876.00098	-154.4133	316.99249	-875.97089	-329.96014	196.16161	-920.88245	-376.58075	213.34293	-976.07898	-291.93814	58.64333	-933.44824	-11.47215	1655.26941	-1034.39124	NaN	NaN	NaN	NaN	NaN	NaN	NaN	NaN	NaN	NaN	NaN	NaN	NaN	NaN	NaN	NaN	NaN	NaN	NaN	NaN	NaN	NaN	NaN	NaN
97	0.96	103.12224	1612.37158	-1063.63049	70.48335	1609.84045	-934.05212	-13.9528	1551.58533	-1091.78577	-41.3433	1548.58923	-963.80109	-38.97863	1391.54517	-1033.81824	-64.59608	1081.8363	-1014.2876	87.47152	1323.30811	-1018.23071	139.1066	1159.32141	-1013.85272	-88.31557	1220.42175	-929.0282	51.50564	1353.43921	-1178.81897	27.45949	1156.45154	-1251.32886	15.18172	1033.87622	-1264.37842	9.99455	902.77655	-1267.34363	-10.49633	783.17261	-1242.35889	-18.26354	795.46167	-1297.85461	-45.86512	711.94415	-1290.39978	26.70563	1354.13855	-864.52356	44.85974	1138.70752	-779.23999	75.32496	1032.10095	-760.34747	131.16168	908.03772	-755.54657	194.38641	830.99518	-788.12939	161.93558	811.90332	-750.01843	211.14124	757.65247	-755.69366	106.76168	931.00555	-1123.50671	93.44247	910.81659	-889.19116	-59.76869	946.76001	-1082.14795	-63.19334	943.32153	-932.30988	116.856	634.8111	-1183.23999	174.54411	468.04938	-1143.13562	129.38058	272.7374	-1148.32288	98.05435	66.26543	-1106.24902	53.83464	32.7617	-1072.82031	247.28175	29.96577	-1076.85547	26.34689	607.39667	-851.09235	30.52846	427.3913	-876.57111	-129.07347	319.16064	-878.1543	-307.34146	202.04913	-922.71259	-354.03918	219.13123	-978.57166	-269.54022	64.81128	-932.83557	2.69618	1656.47205	-1035.20667	NaN	NaN	NaN	NaN	NaN	NaN	NaN	NaN	NaN	NaN	NaN	NaN	NaN	NaN	NaN	NaN	NaN	NaN	NaN	NaN	NaN	NaN	NaN	NaN
98	0.97	116.95924	1612.65149	-1063.92114	84.07327	1610.51697	-934.47003	-0.55316	1552.77344	-1092.26855	-28.21046	1550.13928	-964.27661	-26.23383	1391.97571	-1034.66162	-51.06128	1082.13525	-1015.5531	100.10234	1324.03735	-1018.21881	152.2301	1160.27344	-1013.57959	-75.97061	1220.50891	-930.50415	65.48374	1353.75	-1178.95886	44.52135	1156.43762	-1251.71082	34.05857	1033.73792	-1265.09863	31.83848	902.80133	-1267.44592	13.97514	782.7785	-1242.33716	6.12702	794.51904	-1297.51062	-17.52316	709.3916	-1290.40051	38.34413	1354.34314	-864.80469	55.85063	1138.37354	-780.12085	85.54828	1031.3158	-761.60364	139.11852	906.2558	-756.78619	200.79843	827.7218	-789.41083	168.20692	809.65576	-750.89325	215.93483	753.81604	-757.03546	120.81703	931.29388	-1123.90869	105.60205	911.10846	-889.23486	-45.76571	947.30872	-1083.90698	-50.65867	942.98193	-934.05048	127.32613	633.77527	-1182.62488	183.49287	466.74225	-1142.31982	134.67729	272.09683	-1147.91418	98.77741	66.40479	-1105.94714	53.89542	33.21061	-1072.49353	247.577	29.88141	-1076.56116	44.57108	607.27313	-851.84619	56.23586	427.43771	-876.79938	-103.48856	321.31656	-879.58582	-282.83646	206.79977	-924.74951	-330.15979	223.0918	-980.9823	-243.88136	70.49936	-932.37933	NaN	NaN	NaN	NaN	NaN	NaN	NaN	NaN	NaN	NaN	NaN	NaN	NaN	NaN	NaN	NaN	NaN	NaN	NaN	NaN	NaN	NaN	NaN	NaN	NaN	NaN	NaN
99	0.98	130.76794	1613.08704	-1063.9635	97.53605	1611.35767	-934.57446	12.78333	1554.14758	-1092.57581	-15.18583	1551.94238	-964.70538	-13.31125	1392.94385	-1035.27625	-37.72532	1082.66956	-1016.75024	112.58977	1324.85974	-1018.06769	165.25166	1161.32642	-1013.23883	-64.03944	1220.4198	-932.24152	79.32359	1354.17664	-1179.04907	61.71354	1156.48865	-1251.97021	53.17385	1033.68188	-1265.72961	53.56308	902.4129	-1267.35608	38.48297	782.59625	-1241.77832	30.90671	793.76434	-1297.05457	12.26372	708.07629	-1289.96228	49.80157	1354.34961	-864.83002	66.58934	1137.95679	-780.91772	95.52216	1030.3844	-762.74652	146.90656	904.33643	-757.99347	206.47586	824.05566	-791.15613	174.13951	807.30695	-751.73792	220.30835	749.93481	-758.4848	134.87381	931.42285	-1124.21326	117.59661	911.50244	-889.20392	-31.81334	948.12115	-1085.80408	-38.22171	943.02557	-935.93268	138.57196	633.36884	-1182.21863	191.9153	465.48578	-1141.45667	139.46187	271.65625	-1147.48962	99.45953	66.64253	-1105.8009	53.79372	33.73945	-1072.42334	247.73785	29.74851	-1076.35254	62.34706	607.75488	-852.67517	81.7979	428.48694	-876.80658	-77.07163	322.76715	-880.4903	-257.20676	209.65247	-926.78613	-305.14151	225.11308	-983.19916	-216.0248	74.58831	-933.13403	30.86018	1658.69434	-1036.42615	NaN	NaN	NaN	NaN	NaN	NaN	NaN	NaN	NaN	NaN	NaN	NaN	NaN	NaN	NaN	NaN	NaN	NaN	NaN	NaN	NaN	NaN	NaN	NaN
